<svg width="32" height="32" viewBox="0 0 32 32" fill="none" xmlns="http://www.w3.org/2000/svg">
<g clip-path="url(#clip0_1_10)">
<path d="M16 0C12.8355 0 9.74204 0.938384 7.11085 2.69649C4.47967 4.45459 2.42891 6.95345 1.2179 9.87706C0.00690206 12.8007 -0.309951 16.0177 0.307412 19.1214C0.924776 22.2251 2.44863 25.0761 4.68627 27.3137C6.92391 29.5513 9.77484 31.0752 12.8785 31.6926C15.9822 32.3099 19.1993 31.9931 22.1229 30.7821C25.0465 29.5711 27.5454 27.5203 29.3035 24.8891C31.0616 22.2579 32 19.1645 32 16C31.9955 11.7579 30.3083 7.69088 27.3087 4.69128C24.3091 1.69168 20.2421 0.00451766 16 0V0ZM16 28C13.6266 28 11.3065 27.2962 9.33313 25.9776C7.35974 24.6591 5.82167 22.7849 4.91342 20.5922C4.00517 18.3995 3.76753 15.9867 4.23055 13.6589C4.69358 11.3311 5.83646 9.19295 7.5147 7.51472C9.19293 5.83649 11.3311 4.6936 13.6589 4.23058C15.9867 3.76755 18.3995 4.00519 20.5922 4.91345C22.7849 5.8217 24.659 7.35977 25.9776 9.33316C27.2962 11.3065 28 13.6266 28 16C27.9965 19.1815 26.7311 22.2318 24.4814 24.4814C22.2317 26.7311 19.1815 27.9965 16 28V28Z" fill="#D24343"/>
<path d="M21.4141 10.5859C21.2284 10.4002 21.008 10.2528 20.7653 10.1523C20.5227 10.0517 20.2626 10 20 10C19.7374 10 19.4773 10.0517 19.2347 10.1523C18.9921 10.2528 18.7716 10.4002 18.5859 10.5859L16 13.1719L13.4141 10.5859C13.0387 10.2126 12.5306 10.0034 12.0012 10.0041C11.4717 10.0049 10.9642 10.2155 10.5899 10.5899C10.2155 10.9642 10.0049 11.4717 10.0041 12.0011C10.0034 12.5306 10.2126 13.0387 10.5859 13.4141L13.1719 16L10.5859 18.5859C10.3994 18.7714 10.2513 18.9919 10.1501 19.2348C10.0489 19.4776 9.99664 19.7381 9.99628 20.0011C9.99591 20.2642 10.0475 20.5248 10.148 20.7679C10.2485 21.0111 10.396 21.232 10.582 21.418C10.768 21.604 10.9889 21.7515 11.2321 21.852C11.4752 21.9525 11.7358 22.0041 11.9989 22.0037C12.2619 22.0034 12.5224 21.9511 12.7652 21.8499C13.0081 21.7487 13.2286 21.6006 13.4141 21.4141L16 18.8281L18.5859 21.4141C18.9613 21.7874 19.4694 21.9966 19.9989 21.9959C20.5283 21.9951 21.0358 21.7845 21.4101 21.4101C21.7845 21.0358 21.9951 20.5283 21.9959 19.9988C21.9966 19.4694 21.7874 18.9613 21.4141 18.5859L18.8281 16L21.4141 13.4141C21.5998 13.2284 21.7472 13.008 21.8477 12.7653C21.9483 12.5227 22 12.2626 22 12C22 11.7374 21.9483 11.4773 21.8477 11.2347C21.7472 10.992 21.5998 10.7716 21.4141 10.5859V10.5859Z" fill="#D24343"/>
</g>
<defs>
<clipPath id="clip0_1_10">
<rect width="32" height="32" fill="white"/>
</clipPath>
</defs>
</svg>
