<svg width="48" height="48" viewBox="0 0 48 48" fill="none" xmlns="http://www.w3.org/2000/svg">
<path d="M46.5 24C46.5 28.4501 45.1804 32.8002 42.7081 36.5003C40.2357 40.2004 36.7217 43.0843 32.6104 44.7873C28.499 46.4903 23.975 46.9358 19.6105 46.0677C15.2459 45.1995 11.2368 43.0566 8.09009 39.9099C4.94341 36.7632 2.80049 32.7541 1.93233 28.3895C1.06416 24.025 1.50973 19.501 3.21271 15.3896C4.91568 11.2783 7.79956 7.76427 11.4997 5.29193C15.1998 2.8196 19.5499 1.5 24 1.5C29.9674 1.5 35.6903 3.87053 39.9099 8.0901C44.1295 12.3097 46.5 18.0326 46.5 24ZM4.49999 24C4.49999 27.8567 5.64365 31.6269 7.78634 34.8336C9.92902 38.0404 12.9745 40.5397 16.5377 42.0156C20.1008 43.4916 24.0216 43.8777 27.8043 43.1253C31.5869 42.3729 35.0615 40.5157 37.7886 37.7886C40.5157 35.0615 42.3729 31.5869 43.1253 27.8043C43.8777 24.0216 43.4916 20.1008 42.0156 16.5377C40.5397 12.9745 38.0404 9.92903 34.8336 7.78634C31.6269 5.64366 27.8567 4.5 24 4.5C18.8283 4.5 13.8684 6.55446 10.2114 10.2114C6.55445 13.8684 4.49999 18.8283 4.49999 24Z" fill="#ECF7FF"/>
<path d="M29.805 15.615L21.435 24L29.805 32.385C30.0844 32.666 30.2412 33.0462 30.2412 33.4425C30.2412 33.8387 30.0844 34.2189 29.805 34.5C29.524 34.7793 29.1438 34.9362 28.7475 34.9362C28.3512 34.9362 27.971 34.7793 27.69 34.5L18.15 24.96C17.8972 24.7044 17.7554 24.3594 17.7554 24C17.7554 23.6405 17.8972 23.2955 18.15 23.04L27.69 13.5C27.971 13.2206 28.3512 13.0638 28.7475 13.0638C29.1438 13.0638 29.524 13.2206 29.805 13.5C30.0844 13.781 30.2412 14.1612 30.2412 14.5575C30.2412 14.9537 30.0844 15.3339 29.805 15.615Z" fill="#ECF7FF"/>
</svg>
