<svg width="292" height="64" viewBox="0 0 292 64" fill="none" xmlns="http://www.w3.org/2000/svg">
<path d="M22.2812 33.4219C22.1042 35.8698 21.1979 37.7969 19.5625 39.2031C17.9375 40.6094 15.7917 41.3125 13.125 41.3125C10.2083 41.3125 7.91146 40.3333 6.23438 38.375C4.56771 36.4062 3.73438 33.7083 3.73438 30.2812V28.8906C3.73438 26.7031 4.11979 24.776 4.89062 23.1094C5.66146 21.4427 6.76042 20.1667 8.1875 19.2812C9.625 18.3854 11.2917 17.9375 13.1875 17.9375C15.8125 17.9375 17.9271 18.6406 19.5312 20.0469C21.1354 21.4531 22.0625 23.4271 22.3125 25.9688H17.625C17.5104 24.5 17.099 23.4375 16.3906 22.7812C15.6927 22.1146 14.625 21.7812 13.1875 21.7812C11.625 21.7812 10.4531 22.3438 9.67188 23.4688C8.90104 24.5833 8.50521 26.3177 8.48438 28.6719V30.3906C8.48438 32.849 8.85417 34.6458 9.59375 35.7812C10.3438 36.9167 11.5208 37.4844 13.125 37.4844C14.5729 37.4844 15.651 37.1562 16.3594 36.5C17.0781 35.8333 17.4896 34.8073 17.5938 33.4219H22.2812ZM42.5781 18.25V33.2344C42.5781 35.724 41.7969 37.6927 40.2344 39.1406C38.6823 40.5885 36.5573 41.3125 33.8594 41.3125C31.2031 41.3125 29.0938 40.6094 27.5312 39.2031C25.9688 37.7969 25.1719 35.8646 25.1406 33.4062V18.25H29.8281V33.2656C29.8281 34.7552 30.1823 35.8438 30.8906 36.5312C31.6094 37.2083 32.599 37.5469 33.8594 37.5469C36.4948 37.5469 37.8333 36.1615 37.875 33.3906V18.25H42.5781ZM46.4219 41V18.25H54.3906C57.151 18.25 59.2448 18.7812 60.6719 19.8438C62.099 20.8958 62.8125 22.4427 62.8125 24.4844C62.8125 25.599 62.526 26.5833 61.9531 27.4375C61.3802 28.2812 60.5833 28.901 59.5625 29.2969C60.7292 29.5885 61.6458 30.1771 62.3125 31.0625C62.9896 31.9479 63.3281 33.0312 63.3281 34.3125C63.3281 36.5 62.6302 38.1562 61.2344 39.2812C59.8385 40.4062 57.849 40.9792 55.2656 41H46.4219ZM51.1094 31.0938V37.2344H55.125C56.2292 37.2344 57.0885 36.974 57.7031 36.4531C58.3281 35.9219 58.6406 35.1927 58.6406 34.2656C58.6406 32.1823 57.5625 31.125 55.4062 31.0938H51.1094ZM51.1094 27.7812H54.5781C56.9427 27.7396 58.125 26.7969 58.125 24.9531C58.125 23.9219 57.8229 23.1823 57.2188 22.7344C56.625 22.276 55.6823 22.0469 54.3906 22.0469H51.1094V27.7812ZM85.5469 30.1406C85.5469 32.3802 85.151 34.3438 84.3594 36.0312C83.5677 37.7188 82.4323 39.0208 80.9531 39.9375C79.4844 40.8542 77.7969 41.3125 75.8906 41.3125C74.0052 41.3125 72.3229 40.8594 70.8438 39.9531C69.3646 39.0469 68.2188 37.7552 67.4062 36.0781C66.5938 34.3906 66.1823 32.4531 66.1719 30.2656V29.1406C66.1719 26.901 66.5729 24.9323 67.375 23.2344C68.1875 21.526 69.3281 20.2188 70.7969 19.3125C72.276 18.3958 73.9635 17.9375 75.8594 17.9375C77.7552 17.9375 79.4375 18.3958 80.9062 19.3125C82.3854 20.2188 83.526 21.526 84.3281 23.2344C85.1406 24.9323 85.5469 26.8958 85.5469 29.125V30.1406ZM80.7969 29.1094C80.7969 26.724 80.3698 24.9115 79.5156 23.6719C78.6615 22.4323 77.4427 21.8125 75.8594 21.8125C74.2865 21.8125 73.0729 22.4271 72.2188 23.6562C71.3646 24.875 70.9323 26.6667 70.9219 29.0312V30.1406C70.9219 32.4635 71.349 34.2656 72.2031 35.5469C73.0573 36.8281 74.2865 37.4688 75.8906 37.4688C77.4635 37.4688 78.6719 36.8542 79.5156 35.625C80.3594 34.3854 80.7865 32.5833 80.7969 30.2188V29.1094ZM100.75 35.0312C100.75 34.1458 100.438 33.4688 99.8125 33C99.1875 32.5208 98.0625 32.0208 96.4375 31.5C94.8125 30.9688 93.526 30.4479 92.5781 29.9375C89.9948 28.5417 88.7031 26.6615 88.7031 24.2969C88.7031 23.0677 89.0469 21.974 89.7344 21.0156C90.4323 20.0469 91.4271 19.2917 92.7188 18.75C94.0208 18.2083 95.4792 17.9375 97.0938 17.9375C98.7188 17.9375 100.167 18.2344 101.438 18.8281C102.708 19.4115 103.693 20.2396 104.391 21.3125C105.099 22.3854 105.453 23.6042 105.453 24.9688H100.766C100.766 23.9271 100.438 23.1198 99.7812 22.5469C99.125 21.9635 98.2031 21.6719 97.0156 21.6719C95.8698 21.6719 94.9792 21.9167 94.3438 22.4062C93.7083 22.8854 93.3906 23.5208 93.3906 24.3125C93.3906 25.0521 93.7604 25.6719 94.5 26.1719C95.25 26.6719 96.349 27.1406 97.7969 27.5781C100.464 28.3802 102.406 29.375 103.625 30.5625C104.844 31.75 105.453 33.2292 105.453 35C105.453 36.9688 104.708 38.5156 103.219 39.6406C101.729 40.7552 99.724 41.3125 97.2031 41.3125C95.4531 41.3125 93.8594 40.9948 92.4219 40.3594C90.9844 39.7135 89.8854 38.8333 89.125 37.7188C88.375 36.6042 88 35.3125 88 33.8438H92.7031C92.7031 36.3542 94.2031 37.6094 97.2031 37.6094C98.3177 37.6094 99.1875 37.3854 99.8125 36.9375C100.438 36.4792 100.75 35.8438 100.75 35.0312Z" fill="white"/>
<path d="M181.359 32.9844V41H176.672V18.25H185.547C187.255 18.25 188.755 18.5625 190.047 19.1875C191.349 19.8125 192.349 20.7031 193.047 21.8594C193.745 23.0052 194.094 24.3125 194.094 25.7812C194.094 28.0104 193.328 29.7708 191.797 31.0625C190.276 32.3438 188.167 32.9844 185.469 32.9844H181.359ZM181.359 29.1875H185.547C186.786 29.1875 187.729 28.8958 188.375 28.3125C189.031 27.7292 189.359 26.8958 189.359 25.8125C189.359 24.6979 189.031 23.7969 188.375 23.1094C187.719 22.4219 186.812 22.0677 185.656 22.0469H181.359V29.1875ZM202.016 37.2344H211.969V41H197.328V18.25H202.016V37.2344ZM227.828 36.3125H219.609L218.047 41H213.062L221.531 18.25H225.875L234.391 41H229.406L227.828 36.3125ZM220.875 32.5156H226.562L223.703 24L220.875 32.5156ZM242.016 28.5L246.75 18.25H251.875L244.406 32.75V41H239.641V32.75L232.172 18.25H237.312L242.016 28.5ZM267.641 31.1406H258.641V37.2344H269.203V41H253.953V18.25H269.172V22.0469H258.641V27.4688H267.641V31.1406ZM280.375 32.6719H276.641V41H271.953V18.25H280.406C283.094 18.25 285.167 18.849 286.625 20.0469C288.083 21.2448 288.812 22.9375 288.812 25.125C288.812 26.6771 288.474 27.974 287.797 29.0156C287.13 30.0469 286.115 30.8698 284.75 31.4844L289.672 40.7812V41H284.641L280.375 32.6719ZM276.641 28.875H280.422C281.599 28.875 282.51 28.5781 283.156 27.9844C283.802 27.3802 284.125 26.5521 284.125 25.5C284.125 24.4271 283.818 23.5833 283.203 22.9688C282.599 22.3542 281.667 22.0469 280.406 22.0469H276.641V28.875Z" fill="#E5007B"/>
<path d="M141.1 56C127.9 56 117.2 45.3 117.2 32.1C117.2 18.9 127.9 8.20001 141.1 8.20001C154.3 8.20001 165 18.9 165 32.1C165 45.3 154.3 56 141.1 56ZM141.1 10.8C129.4 10.8 119.8 20.4 119.8 32.1C119.8 43.8 129.4 53.4 141.1 53.4C152.8 53.4 162.4 43.8 162.4 32.1C162.4 20.3 152.8 10.8 141.1 10.8Z" fill="white"/>
<path d="M134 44.4V19.7L155.2 32.1L134 44.4ZM136.8 24.6V39.5L149.5 32.1L136.8 24.6Z" fill="white"/>
</svg>
