<svg width="48" height="48" viewBox="0 0 48 48" fill="none" xmlns="http://www.w3.org/2000/svg">
<path d="M24 3.75C35.166 3.75 44.25 12.834 44.25 24C44.25 35.166 35.166 44.25 24 44.25C12.834 44.25 3.75 35.166 3.75 24C3.75 12.834 12.834 3.75 24 3.75ZM24 1.5C11.5748 1.5 1.5 11.574 1.5 24C1.5 36.426 11.5748 46.5 24 46.5C36.4253 46.5 46.5 36.426 46.5 24C46.5 11.574 36.4253 1.5 24 1.5Z" fill="#CCC3C3"/>
<path d="M28.875 13.1722C26.8125 13.1722 25.125 14.8597 25.125 16.9222V19.26L19.134 15.3172C17.067 13.9575 15.375 14.8687 15.375 17.3437V30C15.375 32.475 17.0692 33.3907 19.1407 32.0355L25.125 28.119V31.0777C25.125 33.1402 26.8125 34.8277 28.875 34.8277C30.9375 34.8277 32.625 33.1402 32.625 31.0777V16.9222C32.625 14.8597 30.9375 13.1722 28.875 13.1722ZM30.375 21.2137V31.0785C30.375 31.9035 29.7 32.5785 28.875 32.5785C28.05 32.5785 27.375 31.9035 27.375 31.0785V25.3027C27.375 24.5632 26.8103 24.3277 26.1195 24.7792L18.8805 29.5177C18.1897 29.9692 17.625 29.6632 17.625 28.839V18.5175C17.625 17.6925 18.189 17.3887 18.8782 17.8425L26.1217 22.608C26.811 23.061 27.375 22.827 27.375 22.0867V16.9215C27.375 16.0965 28.05 15.4215 28.875 15.4215C29.7 15.4215 30.375 16.0965 30.375 16.9215V21.2137Z" fill="#CCC3C3"/>
</svg>
