<svg width="64" height="64" viewBox="0 0 64 64" fill="none" xmlns="http://www.w3.org/2000/svg">
<path d="M32 5C46.888 5 59 17.112 59 32C59 46.888 46.888 59 32 59C17.112 59 5 46.888 5 32C5 17.112 17.112 5 32 5ZM32 2C15.433 2 2 15.432 2 32C2 48.568 15.433 62 32 62C48.567 62 62 48.568 62 32C62 15.432 48.567 2 32 2Z" fill="#CCC3C3"/>
<path d="M39 17.563C36.25 17.563 34 19.813 34 22.563V41.438C34 44.188 36.25 46.438 39 46.438C41.75 46.438 44 44.188 44 41.438V22.563C44 19.813 41.75 17.563 39 17.563ZM41 41.438C41 42.538 40.1 43.438 39 43.438C37.9 43.438 37 42.538 37 41.438V22.563C37 21.463 37.9 20.563 39 20.563C40.1 20.563 41 21.463 41 22.563V41.438ZM25 17.563C22.25 17.563 20 19.813 20 22.563V41.438C20 44.188 22.25 46.438 25 46.438C27.75 46.438 30 44.188 30 41.438V22.563C30 19.813 27.75 17.563 25 17.563ZM27 41.438C27 42.538 26.1 43.438 25 43.438C23.9 43.438 23 42.538 23 41.438V22.563C23 21.463 23.9 20.563 25 20.563C26.1 20.563 27 21.463 27 22.563V41.438Z" fill="#CCC3C3"/>
</svg>
