<svg width="64" height="64" viewBox="0 0 64 64" fill="none" xmlns="http://www.w3.org/2000/svg">
<path d="M32 5C46.888 5 59 17.112 59 32C59 46.888 46.888 59 32 59C17.112 59 5 46.888 5 32C5 17.112 17.112 5 32 5ZM32 2C15.433 2 2 15.432 2 32C2 48.568 15.433 62 32 62C48.567 62 62 48.568 62 32C62 15.432 48.567 2 32 2Z" fill="#CCC3C3"/>
<path d="M43.987 28.745L28.013 18.232C25.256 16.418 23 17.635 23 20.935V43.06C23 46.36 25.259 47.581 28.021 45.774L43.98 35.33C46.741 33.521 46.744 30.559 43.987 28.745ZM41.858 33.124L27.673 42.407C26.753 43.01 26 42.603 26 41.503V22.491C26 21.391 26.752 20.986 27.671 21.591L41.861 30.929C42.78 31.533 42.779 32.521 41.858 33.124Z" fill="#CCC3C3"/>
</svg>
