<svg width="48" height="48" viewBox="0 0 48 48" fill="none" xmlns="http://www.w3.org/2000/svg">
<path d="M24 3.75C35.166 3.75 44.25 12.834 44.25 24C44.25 35.166 35.166 44.25 24 44.25C12.834 44.25 3.75 35.166 3.75 24C3.75 12.834 12.834 3.75 24 3.75ZM24 1.5C11.5748 1.5 1.5 11.574 1.5 24C1.5 36.426 11.5748 46.5 24 46.5C36.4253 46.5 46.5 36.426 46.5 24C46.5 11.574 36.4253 1.5 24 1.5Z" fill="#CCC3C3"/>
<path d="M15.375 16.9222V31.0785C15.375 33.141 17.0625 34.8285 19.125 34.8285C21.1875 34.8285 22.875 33.141 22.875 31.0785V28.1197L28.8593 32.0362C30.9307 33.3907 32.625 32.475 32.625 30V17.3437C32.625 14.8687 30.933 13.9567 28.866 15.3172L22.875 19.26V16.9222C22.875 14.8597 21.1875 13.1722 19.125 13.1722C17.0625 13.1722 15.375 14.8597 15.375 16.9222ZM17.625 16.9222C17.625 16.0972 18.3 15.4222 19.125 15.4222C19.95 15.4222 20.625 16.0972 20.625 16.9222V22.0875C20.625 22.8277 21.189 23.0625 21.8782 22.6087L29.1217 17.8432C29.811 17.3902 30.375 17.694 30.375 18.5182V28.839C30.375 29.664 29.8103 29.9692 29.1195 29.5177L21.8805 24.7792C21.1897 24.3277 20.625 24.5632 20.625 25.3027V31.0785C20.625 31.9035 19.95 32.5785 19.125 32.5785C18.3 32.5785 17.625 31.9035 17.625 31.0785V16.9222Z" fill="#CCC3C3"/>
</svg>
