<svg width="48" height="48" viewBox="0 0 48 48" fill="none" xmlns="http://www.w3.org/2000/svg">
<path d="M24 3.75C35.166 3.75 44.25 12.834 44.25 24C44.25 35.166 35.166 44.25 24 44.25C12.834 44.25 3.75 35.166 3.75 24C3.75 12.834 12.834 3.75 24 3.75ZM24 1.5C11.5748 1.5 1.5 11.574 1.5 24C1.5 36.426 11.5748 46.5 24 46.5C36.4253 46.5 46.5 36.426 46.5 24C46.5 11.574 36.4253 1.5 24 1.5Z" fill="#CCC3C3"/>
<path d="M31.0785 13.1722H16.9222C14.8597 13.1722 13.1722 14.8597 13.1722 16.9222V31.0785C13.1722 33.141 14.8597 34.8285 16.9222 34.8285H31.0785C33.141 34.8285 34.8285 33.141 34.8285 31.0785V16.9222C34.8285 14.8597 33.141 13.1722 31.0785 13.1722ZM32.5785 30.3285C32.5785 31.566 31.566 32.5785 30.3285 32.5785H17.6722C16.4347 32.5785 15.4222 31.566 15.4222 30.3285V17.6722C15.4222 16.4347 16.4347 15.4222 17.6722 15.4222H30.3285C31.566 15.4222 32.5785 16.4347 32.5785 17.6722V30.3285Z" fill="#CCC3C3"/>
</svg>
