<svg width="100" height="100" viewBox="0 0 100 100" fill="none" xmlns="http://www.w3.org/2000/svg">
<path d="M51.7083 46.7917C41.25 47.1667 41.4167 27.9583 48.0833 25.9583C58.3333 23.0417 59.7917 46.5 51.7083 46.7917Z" fill="white"/>
<path d="M57.9584 82.2917C17.875 82.2917 39.7917 41.6667 4.16669 40.0833C3.62872 40.0618 3.11999 39.8328 2.74713 39.4444C2.37427 39.056 2.16626 38.5384 2.16669 38V29.375C2.16626 28.8366 2.37427 28.3189 2.74713 27.9305C3.11999 27.5422 3.62872 27.3132 4.16669 27.2917C52.7084 28.375 25.7084 67.375 58.3334 69.1667C79.1667 70.2917 81.25 46.1667 83.3334 36.9583C84.4167 32.5417 86.4584 28.625 91.6667 29.375C96.875 30.125 97.3333 34.3333 97.4583 38.4167C98.5833 60.7917 86.4167 82.2917 57.9584 82.2917Z" fill="white"/>
<path d="M69.2917 17.7083C79.2917 18.4167 79.0417 42.2083 70.5 41.9167C61.9583 41.625 61.375 17.125 69.2917 17.7083Z" fill="white"/>
</svg>
